# Made in Blockbench 1.11.6
mtllib boiler_cell.mtl
o cube
v 2 3 2
v 2 3 -2
v 2 -5 2
v 2 -5 -2
v -2 3 -2
v -2 3 2
v -2 -5 -2
v -2 -5 2
vt 0.1 0.575
vt 0.1 0.475
vt 0.15000000000000002 0.575
vt 0.1 0.475
vt 0.15000000000000002 0.475
vt 0.15000000000000002 0.575
vt 0 0.575
vt 0 0.475
vt 0.05 0.575
vt 0 0.475
vt 0.05 0.475
vt 0.05 0.575
vt 0 0.625
vt 0 0.575
vt 0.05 0.625
vt 0 0.575
vt 0.05 0.575
vt 0.05 0.625
vt 0 1
vt 0 0.75
vt 0.25 1
vt 0 0.75
vt 0.25 0.75
vt 0.25 1
vt 0.05 0.575
vt 0.05 0.475
vt 0.1 0.575
vt 0.05 0.475
vt 0.1 0.475
vt 0.1 0.575
vt 0.15 0.575
vt 0.15 0.475
vt 0.2 0.575
vt 0.15 0.475
vt 0.2 0.475
vt 0.2 0.575
vn 1 0 0
vn 1 0 0
vn 1 0 0
vn 1 0 0
vn 1 0 0
vn 1 0 0
vn -1 0 0
vn -1 0 0
vn -1 0 0
vn -1 0 0
vn -1 0 0
vn -1 0 0
vn 0 1 0
vn 0 1 0
vn 0 1 0
vn 0 1 0
vn 0 1 0
vn 0 1 0
vn 0 -1 0
vn 0 -1 0
vn 0 -1 0
vn 0 -1 0
vn 0 -1 0
vn 0 -1 0
vn 0 0 1
vn 0 0 1
vn 0 0 1
vn 0 0 1
vn 0 0 1
vn 0 0 1
vn 0 0 -1
vn 0 0 -1
vn 0 0 -1
vn 0 0 -1
vn 0 0 -1
vn 0 0 -1
usemtl 0
f 1/1/1 3/2/2 2/3/3
f 3/4/4 4/5/5 2/6/6
usemtl 0
f 5/7/7 7/8/8 6/9/9
f 7/10/10 8/11/11 6/12/12
usemtl 0
f 5/13/13 6/14/14 2/15/15
f 6/16/16 1/17/17 2/18/18
usemtl 0
f 6/25/25 8/26/26 1/27/27
f 8/28/28 3/29/29 1/30/30
usemtl 0
f 2/31/31 4/32/32 5/33/33
f 4/34/34 7/35/35 5/36/36
o cube
v 1 6 1
v 1 6 -1
v 1 3 1
v 1 3 -1
v -1 6 -1
v -1 6 1
v -1 3 -1
v -1 3 1
vt 0.1 0.625
vt 0.1 0.5875
vt 0.125 0.625
vt 0.1 0.5875
vt 0.125 0.5875
vt 0.125 0.625
vt 0.05 0.625
vt 0.05 0.5875
vt 0.07500000000000001 0.625
vt 0.05 0.5875
vt 0.07500000000000001 0.5875
vt 0.07500000000000001 0.625
vt 0 1
vt 0 0.875
vt 0.125 1
vt 0 0.875
vt 0.125 0.875
vt 0.125 1
vt 0 1
vt 0 0.875
vt 0.125 1
vt 0 0.875
vt 0.125 0.875
vt 0.125 1
vt 0.075 0.625
vt 0.075 0.5875
vt 0.1 0.625
vt 0.075 0.5875
vt 0.1 0.5875
vt 0.1 0.625
vt 0.125 0.625
vt 0.125 0.5875
vt 0.15 0.625
vt 0.125 0.5875
vt 0.15 0.5875
vt 0.15 0.625
vn 1 0 0
vn 1 0 0
vn 1 0 0
vn 1 0 0
vn 1 0 0
vn 1 0 0
vn -1 0 0
vn -1 0 0
vn -1 0 0
vn -1 0 0
vn -1 0 0
vn -1 0 0
vn 0 1 0
vn 0 1 0
vn 0 1 0
vn 0 1 0
vn 0 1 0
vn 0 1 0
vn 0 -1 0
vn 0 -1 0
vn 0 -1 0
vn 0 -1 0
vn 0 -1 0
vn 0 -1 0
vn 0 0 1
vn 0 0 1
vn 0 0 1
vn 0 0 1
vn 0 0 1
vn 0 0 1
vn 0 0 -1
vn 0 0 -1
vn 0 0 -1
vn 0 0 -1
vn 0 0 -1
vn 0 0 -1
usemtl 0
f 9/37/37 11/38/38 10/39/39
f 11/40/40 12/41/41 10/42/42
usemtl 0
f 13/43/43 15/44/44 14/45/45
f 15/46/46 16/47/47 14/48/48
usemtl 0
f 14/61/61 16/62/62 9/63/63
f 16/64/64 11/65/65 9/66/66
usemtl 0
f 10/67/67 12/68/68 13/69/69
f 12/70/70 15/71/71 13/72/72
