# Blender v2.76 (sub 0) OBJ File: 'chem.centrifuge.blend'
# www.blender.org
mtllib chem.centrifuge.mtl
o MROT
v 0.125000 0.337500 -0.125000
v 0.062500 0.337500 -0.125000
v 0.062500 0.462500 -0.125000
v 0.125000 0.462500 -0.125000
v 0.062500 0.337500 -0.062500
v 0.125000 0.337500 -0.062500
v 0.125000 0.462500 -0.062500
v 0.062500 0.462500 -0.062500
vt 0.078125 0.710938
vt 0.078125 0.726563
vt 0.070313 0.726563
vt 0.093750 0.710938
vt 0.093750 0.726563
vt 0.085938 0.726563
vt 0.078125 0.734375
vt 0.070313 0.734375
vt 0.085938 0.734375
vt 0.070313 0.710938
vt 0.062500 0.726563
vt 0.085938 0.710938
vt 0.062500 0.710938
vn 0.000000 0.000000 -1.000000
vn 0.000000 -0.000000 1.000000
vn 0.000000 1.000000 0.000000
vn 0.000000 -1.000000 0.000000
vn 1.000000 0.000000 0.000000
vn -1.000000 0.000000 0.000000
usemtl None
s off
f 2/1/1 3/2/1 4/3/1
f 6/4/2 7/5/2 8/6/2
f 3/2/3 8/7/3 7/8/3
f 5/6/4 2/9/4 1/7/4
f 1/10/5 4/3/5 7/11/5
f 2/1/6 5/12/6 8/6/6
f 1/10/1 2/1/1 4/3/1
f 5/12/2 6/4/2 8/6/2
f 4/3/3 3/2/3 7/8/3
f 6/2/4 5/6/4 1/7/4
f 6/13/5 1/10/5 7/11/5
f 3/2/6 2/1/6 8/6/6
o KROT
v 0.125000 0.337500 0.062500
v 0.062500 0.337500 0.062500
v 0.062500 0.462500 0.062500
v 0.125000 0.462500 0.062500
v 0.062500 0.337500 0.125000
v 0.125000 0.337500 0.125000
v 0.125000 0.462500 0.125000
v 0.062500 0.462500 0.125000
vt 0.078125 0.710938
vt 0.078125 0.726563
vt 0.070313 0.726563
vt 0.093750 0.710938
vt 0.093750 0.726563
vt 0.085938 0.726563
vt 0.078125 0.734375
vt 0.070313 0.734375
vt 0.085938 0.734375
vt 0.070313 0.710938
vt 0.062500 0.726563
vt 0.085938 0.710938
vt 0.062500 0.710938
vn 0.000000 0.000000 -1.000000
vn 0.000000 -0.000000 1.000000
vn 0.000000 1.000000 0.000000
vn 0.000000 -1.000000 -0.000000
vn 1.000000 0.000000 0.000000
vn -1.000000 0.000000 0.000000
usemtl None
s off
f 10/14/7 11/15/7 12/16/7
f 14/17/8 15/18/8 16/19/8
f 11/15/9 16/20/9 15/21/9
f 13/19/10 10/22/10 9/20/10
f 9/23/11 12/16/11 15/24/11
f 10/14/12 13/25/12 16/19/12
f 9/23/7 10/14/7 12/16/7
f 13/25/8 14/17/8 16/19/8
f 12/16/9 11/15/9 15/21/9
f 14/15/10 13/19/10 9/20/10
f 14/26/11 9/23/11 15/24/11
f 11/15/12 10/14/12 16/19/12
o H
v 0.250000 0.719051 -0.503849
v -0.250000 0.719051 -0.503849
v -0.250000 0.931155 -0.121202
v 0.250000 0.931155 -0.121202
v -0.250000 0.609723 -0.443247
v 0.250000 0.609723 -0.443247
v 0.250000 0.821827 -0.060601
v -0.250000 0.821827 -0.060601
vt 0.601563 0.687500
vt 0.601563 0.742188
vt 0.539063 0.742188
vt 0.679688 0.687500
vt 0.679688 0.742188
vt 0.617188 0.742188
vt 0.601563 0.757813
vt 0.539063 0.757813
vt 0.664063 0.742188
vt 0.664063 0.757813
vt 0.523438 0.687500
vt 0.539063 0.687500
vt 0.617188 0.687500
vt 0.523438 0.742188
vn 0.000000 0.874600 -0.484800
vn 0.000000 -0.874600 0.484800
vn 0.000000 0.484800 0.874600
vn 0.000000 -0.484800 -0.874600
vn 1.000000 0.000000 0.000000
vn -1.000000 -0.000000 0.000000
usemtl None
s off
f 18/27/13 19/28/13 20/29/13
f 22/30/14 23/31/14 24/32/14
f 19/28/15 24/33/15 23/34/15
f 21/35/16 18/36/16 17/33/16
f 22/37/17 17/38/17 20/29/17
f 21/39/18 24/32/18 19/28/18
f 17/38/13 18/27/13 20/29/13
f 21/39/14 22/30/14 24/32/14
f 20/29/15 19/28/15 23/34/15
f 22/28/16 21/35/16 17/33/16
f 23/40/17 22/37/17 20/29/17
f 18/27/18 21/39/18 19/28/18
o F
v 0.220971 0.087500 0.132583
v 0.132583 0.087500 0.220971
v 0.132583 0.462500 0.220971
v 0.220971 0.462500 0.132583
v 0.176777 0.087500 0.265165
v 0.265165 0.087500 0.176777
v 0.265165 0.462500 0.176777
v 0.176777 0.462500 0.265165
vt 0.023438 0.679688
vt 0.023438 0.726563
vt 0.007813 0.726563
vt 0.046875 0.679688
vt 0.046875 0.726563
vt 0.031250 0.726563
vt 0.023438 0.734375
vt 0.007813 0.734375
vt 0.039063 0.726563
vt 0.039063 0.734375
vt 0.007813 0.679688
vt 0.000000 0.726563
vt 0.031250 0.679688
vt 0.000000 0.679688
vn -0.707100 0.000000 -0.707100
vn 0.707100 -0.000000 0.707100
vn 0.000000 1.000000 -0.000000
vn 0.000000 -1.000000 0.000000
vn 0.707100 0.000000 -0.707100
vn -0.707100 -0.000000 0.707100
usemtl None
s off
f 26/41/19 27/42/19 28/43/19
f 30/44/20 31/45/20 32/46/20
f 27/42/21 32/47/21 31/48/21
f 30/42/22 29/49/22 26/50/22
f 25/51/23 28/43/23 31/52/23
f 29/53/24 32/46/24 27/42/24
f 25/51/19 26/41/19 28/43/19
f 29/53/20 30/44/20 32/46/20
f 28/43/21 27/42/21 31/48/21
f 25/47/22 30/42/22 26/50/22
f 30/54/23 25/51/23 31/52/23
f 26/41/24 29/53/24 27/42/24
o B
v 0.375000 0.025000 -0.375000
v -0.375000 0.025000 -0.375000
v -0.375000 0.087500 -0.375000
v 0.375000 0.087500 -0.375000
v -0.375000 0.025000 0.375000
v 0.375000 0.025000 0.375000
v 0.375000 0.087500 0.375000
v -0.375000 0.087500 0.375000
vt 0.187500 0.750000
vt 0.187500 0.757813
vt 0.093750 0.757813
vt 0.375000 0.750000
vt 0.375000 0.757813
vt 0.281250 0.757813
vt 0.187500 0.851563
vt 0.093750 0.851563
vt 0.281250 0.851563
vt 0.093750 0.750000
vt 0.000000 0.757813
vt 0.281250 0.750000
vt 0.000000 0.750000
vn 0.000000 0.000000 -1.000000
vn 0.000000 0.000000 1.000000
vn 0.000000 1.000000 0.000000
vn 0.000000 -1.000000 -0.000000
vn 1.000000 0.000000 0.000000
vn -1.000000 0.000000 0.000000
usemtl None
s off
f 34/55/25 35/56/25 36/57/25
f 38/58/26 39/59/26 40/60/26
f 35/56/27 40/61/27 39/62/27
f 37/60/28 34/63/28 33/61/28
f 33/64/29 36/57/29 39/65/29
f 37/66/30 40/60/30 35/56/30
f 33/64/25 34/55/25 36/57/25
f 37/66/26 38/58/26 40/60/26
f 36/57/27 35/56/27 39/62/27
f 38/56/28 37/60/28 33/61/28
f 38/67/29 33/64/29 39/65/29
f 34/55/30 37/66/30 35/56/30
o G
v 0.250000 -0.037500 -0.500000
v -0.250000 -0.037500 -0.500000
v -0.250000 0.712500 -0.500000
v 0.250000 0.712500 -0.500000
v -0.250000 -0.037500 -0.250000
v 0.250000 -0.037500 -0.250000
v 0.250000 0.712500 -0.250000
v -0.250000 0.712500 -0.250000
vt 0.617188 0.773438
vt 0.617188 0.867188
vt 0.554688 0.867188
vt 0.710938 0.773438
vt 0.710938 0.867188
vt 0.648438 0.867188
vt 0.617188 0.898438
vt 0.554688 0.898438
vt 0.679688 0.867188
vt 0.679688 0.898438
vt 0.523438 0.773438
vt 0.554688 0.773438
vt 0.648438 0.773438
vt 0.523438 0.867188
vn 0.000000 0.000000 -1.000000
vn 0.000000 -0.000000 1.000000
vn 0.000000 1.000000 0.000000
vn 0.000000 -1.000000 -0.000000
vn 1.000000 0.000000 0.000000
vn -1.000000 0.000000 0.000000
usemtl None
s off
f 42/68/31 43/69/31 44/70/31
f 46/71/32 47/72/32 48/73/32
f 43/69/33 48/74/33 47/75/33
f 45/76/34 42/77/34 41/74/34
f 46/78/35 41/79/35 44/70/35
f 45/80/36 48/73/36 43/69/36
f 41/79/31 42/68/31 44/70/31
f 45/80/32 46/71/32 48/73/32
f 44/70/33 43/69/33 47/75/33
f 46/69/34 45/76/34 41/74/34
f 47/81/35 46/78/35 44/70/35
f 42/68/36 45/80/36 43/69/36
o A
v 0.500000 -0.037500 -0.500000
v -0.500000 -0.037500 -0.500000
v -0.500000 0.025000 -0.500000
v 0.500000 0.025000 -0.500000
v -0.500000 -0.037500 0.500000
v 0.500000 -0.037500 0.500000
v 0.500000 0.025000 0.500000
v -0.500000 0.025000 0.500000
vt 0.250000 0.867188
vt 0.250000 0.875000
vt 0.125000 0.875000
vt 0.500000 0.867188
vt 0.500000 0.875000
vt 0.375000 0.875000
vt 0.250000 1.000000
vt 0.125000 1.000000
vt 0.375000 1.000000
vt 0.125000 0.867188
vt 0.000000 0.875000
vt 0.375000 0.867188
vt 0.000000 0.867188
vn 0.000000 0.000000 -1.000000
vn 0.000000 0.000000 1.000000
vn 0.000000 1.000000 0.000000
vn 0.000000 -1.000000 -0.000000
vn 1.000000 0.000000 0.000000
vn -1.000000 0.000000 0.000000
usemtl None
s off
f 50/82/37 51/83/37 52/84/37
f 54/85/38 55/86/38 56/87/38
f 51/83/39 56/88/39 55/89/39
f 53/87/40 50/90/40 49/88/40
f 49/91/41 52/84/41 55/92/41
f 53/93/42 56/87/42 51/83/42
f 49/91/37 50/82/37 52/84/37
f 53/93/38 54/85/38 56/87/38
f 52/84/39 51/83/39 55/89/39
f 54/83/40 53/87/40 49/88/40
f 54/94/41 49/91/41 55/92/41
f 50/82/42 53/93/42 51/83/42
o JROT
v -0.062500 0.337500 0.062500
v -0.125000 0.337500 0.062500
v -0.125000 0.462500 0.062500
v -0.062500 0.462500 0.062500
v -0.125000 0.337500 0.125000
v -0.062500 0.337500 0.125000
v -0.062500 0.462500 0.125000
v -0.125000 0.462500 0.125000
vt 0.078125 0.710938
vt 0.078125 0.726563
vt 0.070313 0.726563
vt 0.093750 0.710938
vt 0.093750 0.726563
vt 0.085938 0.726563
vt 0.078125 0.734375
vt 0.070313 0.734375
vt 0.085938 0.734375
vt 0.070313 0.710938
vt 0.062500 0.726563
vt 0.085938 0.710938
vt 0.062500 0.710938
vn 0.000000 0.000000 -1.000000
vn 0.000000 -0.000000 1.000000
vn 0.000000 1.000000 0.000000
vn 0.000000 -1.000000 -0.000000
vn 1.000000 0.000000 0.000000
vn -1.000000 0.000000 0.000000
usemtl None
s off
f 58/95/43 59/96/43 60/97/43
f 62/98/44 63/99/44 64/100/44
f 59/96/45 64/101/45 63/102/45
f 61/100/46 58/103/46 57/101/46
f 57/104/47 60/97/47 63/105/47
f 58/95/48 61/106/48 64/100/48
f 57/104/43 58/95/43 60/97/43
f 61/106/44 62/98/44 64/100/44
f 60/97/45 59/96/45 63/102/45
f 62/96/46 61/100/46 57/101/46
f 62/107/47 57/104/47 63/105/47
f 59/96/48 58/95/48 64/100/48
o E
v -0.132583 0.087500 0.220971
v -0.220971 0.087500 0.132583
v -0.220971 0.462500 0.132583
v -0.132582 0.462500 0.220971
v -0.265165 0.087500 0.176777
v -0.176777 0.087500 0.265165
v -0.176777 0.462500 0.265165
v -0.265165 0.462500 0.176777
vt 0.007813 0.679688
vt 0.023438 0.679688
vt 0.023438 0.726563
vt 0.046875 0.679688
vt 0.046875 0.726563
vt 0.031250 0.726563
vt 0.023438 0.734375
vt 0.007813 0.734375
vt 0.039063 0.726563
vt 0.039063 0.734375
vt 0.007813 0.726563
vt 0.000000 0.726563
vt 0.031250 0.679688
vt 0.000000 0.679688
vn 0.707100 0.000000 -0.707100
vn -0.707100 -0.000000 0.707100
vn 0.000000 1.000000 0.000000
vn 0.000000 -1.000000 -0.000000
vn 0.707100 -0.000000 0.707100
vn -0.707100 0.000000 -0.707100
usemtl None
s off
f 65/108/49 66/109/49 67/110/49
f 70/111/50 71/112/50 72/113/50
f 67/110/51 72/114/51 71/115/51
f 70/110/52 69/116/52 66/117/52
f 65/108/53 68/118/53 71/119/53
f 69/120/54 72/113/54 67/110/54
f 68/118/49 65/108/49 67/110/49
f 69/120/50 70/111/50 72/113/50
f 68/118/51 67/110/51 71/115/51
f 65/114/52 70/110/52 66/117/52
f 70/121/53 65/108/53 71/119/53
f 66/109/54 69/120/54 67/110/54
o I
v 0.125000 0.775000 -0.125000
v -0.125000 0.775000 -0.125000
v -0.125000 0.900000 -0.125000
v 0.125000 0.900000 -0.125000
v -0.125000 0.775000 0.125000
v 0.125000 0.775000 0.125000
v 0.125000 0.900000 0.125000
v -0.125000 0.900000 0.125000
vt 0.132813 0.617188
vt 0.132813 0.632813
vt 0.101563 0.632813
vt 0.195313 0.617188
vt 0.195313 0.632813
vt 0.164063 0.632813
vt 0.132813 0.664063
vt 0.101563 0.664063
vt 0.164063 0.664063
vt 0.070313 0.617188
vt 0.101563 0.617188
vt 0.164063 0.617188
vt 0.070313 0.632813
vn 0.000000 0.000000 -1.000000
vn 0.000000 -0.000000 1.000000
vn 0.000000 1.000000 0.000000
vn 0.000000 -1.000000 0.000000
vn 1.000000 0.000000 0.000000
vn -1.000000 0.000000 0.000000
usemtl None
s off
f 74/122/55 75/123/55 76/124/55
f 78/125/56 79/126/56 80/127/56
f 75/123/57 80/128/57 79/129/57
f 77/127/58 74/130/58 73/128/58
f 78/131/59 73/132/59 76/124/59
f 77/133/60 80/127/60 75/123/60
f 73/132/55 74/122/55 76/124/55
f 77/133/56 78/125/56 80/127/56
f 76/124/57 75/123/57 79/129/57
f 78/123/58 77/127/58 73/128/58
f 79/134/59 78/131/59 76/124/59
f 74/122/60 77/133/60 75/123/60
o LROT
v -0.062500 0.337500 -0.125000
v -0.125000 0.337500 -0.125000
v -0.125000 0.462500 -0.125000
v -0.062500 0.462500 -0.125000
v -0.125000 0.337500 -0.062500
v -0.062500 0.337500 -0.062500
v -0.062500 0.462500 -0.062500
v -0.125000 0.462500 -0.062500
vt 0.078125 0.710938
vt 0.078125 0.726563
vt 0.070313 0.726563
vt 0.093750 0.710938
vt 0.093750 0.726563
vt 0.085938 0.726563
vt 0.078125 0.734375
vt 0.070313 0.734375
vt 0.085938 0.734375
vt 0.070313 0.710938
vt 0.062500 0.726563
vt 0.085938 0.710938
vt 0.062500 0.710938
vn 0.000000 0.000000 -1.000000
vn 0.000000 -0.000000 1.000000
vn 0.000000 1.000000 0.000000
vn 0.000000 -1.000000 0.000000
vn 1.000000 0.000000 0.000000
vn -1.000000 -0.000000 0.000000
usemtl None
s off
f 82/135/61 83/136/61 84/137/61
f 86/138/62 87/139/62 88/140/62
f 83/136/63 88/141/63 87/142/63
f 85/140/64 82/143/64 81/141/64
f 81/144/65 84/137/65 87/145/65
f 82/135/66 85/146/66 88/140/66
f 81/144/61 82/135/61 84/137/61
f 85/146/62 86/138/62 88/140/62
f 84/137/63 83/136/63 87/142/63
f 86/136/64 85/140/64 81/141/64
f 86/147/65 81/144/65 87/145/65
f 83/136/66 82/135/66 88/140/66
o D
v 0.250000 0.087500 -0.250000
v -0.250000 0.087500 -0.250000
v -0.250000 0.337500 -0.250000
v 0.250000 0.337500 -0.250000
v -0.250000 0.087500 0.250000
v 0.250000 0.087500 0.250000
v 0.250000 0.337500 0.250000
v -0.250000 0.337500 0.250000
vt 0.648438 0.906250
vt 0.648438 0.937500
vt 0.585938 0.937500
vt 0.773438 0.906250
vt 0.773438 0.937500
vt 0.710938 0.937500
vt 0.648438 1.000000
vt 0.585938 1.000000
vt 0.710938 1.000000
vt 0.585938 0.906250
vt 0.523438 0.937500
vt 0.710938 0.906250
vt 0.523438 0.906250
vn 0.000000 0.000000 -1.000000
vn 0.000000 -0.000000 1.000000
vn 0.000000 1.000000 0.000000
vn 0.000000 -1.000000 -0.000000
vn 1.000000 0.000000 0.000000
vn -1.000000 0.000000 0.000000
usemtl None
s off
f 90/148/67 91/149/67 92/150/67
f 94/151/68 95/152/68 96/153/68
f 91/149/69 96/154/69 95/155/69
f 93/153/70 90/156/70 89/154/70
f 89/157/71 92/150/71 95/158/71
f 90/148/72 93/159/72 96/153/72
f 89/157/67 90/148/67 92/150/67
f 93/159/68 94/151/68 96/153/68
f 92/150/69 91/149/69 95/155/69
f 94/149/70 93/153/70 89/154/70
f 94/160/71 89/157/71 95/158/71
f 91/149/72 90/148/72 96/153/72
o C
v 0.062500 0.087500 -0.062500
v -0.062500 0.087500 -0.062500
v -0.062500 0.837500 -0.062500
v 0.062500 0.837500 -0.062500
v -0.062500 0.087500 0.062500
v 0.062500 0.087500 0.062500
v 0.062500 0.837500 0.062500
v -0.062500 0.837500 0.062500
vt 0.031250 0.554688
vt 0.031250 0.648438
vt 0.015625 0.648438
vt 0.062500 0.554688
vt 0.062500 0.648438
vt 0.046875 0.648438
vt 0.031250 0.664063
vt 0.015625 0.664063
vt 0.046875 0.664063
vt 0.015625 0.554688
vt 0.000000 0.648438
vt 0.046875 0.554688
vt 0.000000 0.554688
vn 0.000000 0.000000 -1.000000
vn 0.000000 -0.000000 1.000000
vn 0.000000 1.000000 0.000000
vn 0.000000 -1.000000 -0.000000
vn 1.000000 0.000000 0.000000
vn -1.000000 0.000000 0.000000
usemtl None
s off
f 98/161/73 99/162/73 100/163/73
f 102/164/74 103/165/74 104/166/74
f 99/162/75 104/167/75 103/168/75
f 101/166/76 98/169/76 97/167/76
f 97/170/77 100/163/77 103/171/77
f 101/172/78 104/166/78 99/162/78
f 97/170/73 98/161/73 100/163/73
f 101/172/74 102/164/74 104/166/74
f 100/163/75 99/162/75 103/168/75
f 102/162/76 101/166/76 97/167/76
f 102/173/77 97/170/77 103/171/77
f 98/161/78 101/172/78 99/162/78
